<svg xmlns="http://www.w3.org/2000/svg" viewBox="0 0 1200 800">
  <defs>
    <radialGradient id="sky2" cx="50%" cy="40%" r="60%">
      <stop offset="0%" stop-color="#081120"/>
      <stop offset="100%" stop-color="#040507"/>
    </radialGradient>
  </defs>
  <rect width="1200" height="800" fill="url(#sky2)"/>
  <!-- Stars -->
  <circle cx="100" cy="60" r="0.8" fill="#BFC5CF" opacity="0.5"/>
  <circle cx="250" cy="100" r="1.1" fill="#F2EFE8" opacity="0.6"/>
  <circle cx="400" cy="50" r="0.7" fill="#BFC5CF" opacity="0.4"/>
  <circle cx="550" cy="90" r="1" fill="#F2EFE8" opacity="0.7"/>
  <circle cx="700" cy="70" r="0.9" fill="#BFC5CF" opacity="0.5"/>
  <circle cx="850" cy="110" r="1.2" fill="#F2EFE8" opacity="0.6"/>
  <circle cx="1000" cy="55" r="0.8" fill="#BFC5CF" opacity="0.4"/>
  <circle cx="1100" cy="95" r="1" fill="#F2EFE8" opacity="0.5"/>
  <!-- Winding road -->
  <path d="M200,800 Q300,650 350,600 Q420,530 500,560 Q580,590 600,520 Q630,450 700,470 Q770,490 800,420" stroke="#1a2a40" stroke-width="2" fill="none" opacity="0.4"/>
  <path d="M200,800 Q300,660 350,610 Q420,540 500,570 Q580,600 600,530 Q630,460 700,480 Q770,500 800,430" stroke="#BFC5CF" stroke-width="0.5" fill="none" opacity="0.2"/>
  <!-- Mountain ridges -->
  <polygon points="0,700 150,550 300,600 500,480 700,520 900,450 1100,500 1200,580 1200,800 0,800" fill="#040507" opacity="0.8"/>
  <polygon points="0,750 200,620 400,660 600,580 800,620 1000,560 1200,640 1200,800 0,800" fill="#081120" opacity="0.5"/>
  <!-- Fog -->
  <ellipse cx="600" cy="580" rx="700" ry="60" fill="#0F1A2E" opacity="0.2"/>
  <!-- Label -->
  <text x="600" y="760" text-anchor="middle" font-family="IBM Plex Mono, monospace" font-size="10" fill="#BFC5CF" opacity="0.4" letter-spacing="0.2em">THE MOUNTAIN — CLASSIFIED LOCATION</text>
</svg>
